<?xml version="1.0" encoding="utf-8" ?>
<svg baseProfile="tiny" height="230px" version="1.2" width="230px" xmlns="http://www.w3.org/2000/svg" xmlns:ev="http://www.w3.org/2001/xml-events" xmlns:xlink="http://www.w3.org/1999/xlink"><defs /><rect fill="white" height="230" width="230" x="0" y="0" /><path d="M 161,136 L 160,137 L 159,137 L 158,138 L 157,138 L 132,163 L 132,164 L 126,170 L 125,170 L 124,171 L 123,170 L 122,170 L 110,158 L 106,158 L 99,165 L 99,166 L 98,167 L 98,169 L 99,170 L 99,171 L 118,190 L 120,190 L 121,191 L 126,191 L 127,190 L 129,190 L 171,148 L 171,143 L 170,142 L 169,142 L 164,137 L 163,137 L 162,136 Z" fill="none" stroke="#3B82F6" stroke-width="2" /><path d="M 79,122 L 78,123 L 77,123 L 76,124 L 76,130 L 77,131 L 150,131 L 151,130 L 151,123 L 150,123 L 149,122 Z" fill="none" stroke="#3B82F6" stroke-width="2" /><path d="M 78,101 L 77,102 L 76,102 L 76,109 L 77,110 L 150,110 L 151,109 L 151,103 L 149,101 Z" fill="none" stroke="#3B82F6" stroke-width="2" /><path d="M 88,79 L 87,80 L 78,80 L 77,81 L 77,83 L 76,84 L 76,86 L 77,87 L 77,88 L 78,88 L 79,89 L 95,89 L 96,88 L 130,88 L 131,89 L 132,88 L 133,88 L 134,89 L 148,89 L 149,88 L 150,88 L 150,87 L 151,86 L 151,82 L 150,81 L 150,80 L 139,80 L 138,79 Z" fill="none" stroke="#3B82F6" stroke-width="2" /><path d="M 80,54 L 79,55 L 65,55 L 64,56 L 59,56 L 57,58 L 57,66 L 56,67 L 56,86 L 55,87 L 55,160 L 56,161 L 56,180 L 57,181 L 57,185 L 59,187 L 60,187 L 61,188 L 67,188 L 68,189 L 79,189 L 80,190 L 100,190 L 101,191 L 103,191 L 104,190 L 105,190 L 105,189 L 106,188 L 99,181 L 97,181 L 96,180 L 82,180 L 81,179 L 80,180 L 79,180 L 78,179 L 69,179 L 67,177 L 67,161 L 66,160 L 66,83 L 67,82 L 67,67 L 69,65 L 75,65 L 76,64 L 97,64 L 98,63 L 131,63 L 132,64 L 153,64 L 154,65 L 159,65 L 161,67 L 161,71 L 162,72 L 162,95 L 163,96 L 163,125 L 171,133 L 172,132 L 173,132 L 173,97 L 172,96 L 172,76 L 171,75 L 171,62 L 170,61 L 170,58 L 168,56 L 166,56 L 165,55 L 149,55 L 148,54 Z" fill="none" stroke="#3B82F6" stroke-width="2" /></svg>